HIERARCHY
ROOT hip
{
	OFFSET 0.000000 0.000000 0.000000
	CHANNELS 6 Xposition Yposition Zposition Xrotation Zrotation Yrotation 
	JOINT abdomen
	{
		OFFSET 0.000000 3.422050 0.000000
		CHANNELS 3 Xrotation Zrotation Yrotation 
		JOINT chest
		{
			OFFSET 0.000000 8.486693 -0.684411
			CHANNELS 3 Xrotation Zrotation Yrotation 
			JOINT neck
			{
				OFFSET 0.000000 10.266162 -0.273764
				CHANNELS 3 Xrotation Zrotation Yrotation 
				JOINT head
				{
					OFFSET 0.000000 3.148285 0.000000
					CHANNELS 3 Xrotation Zrotation Yrotation 
					End Site
					{
						OFFSET 0.000000 3.148289 0.000000
					}
				}
			}
			JOINT lCollar
			{
				OFFSET 3.422053 6.707223 -0.821293
				CHANNELS 3 Yrotation Zrotation Xrotation 
				JOINT lShldr
				{
					OFFSET 3.285171 0.000000 0.000000
					CHANNELS 3 Zrotation Yrotation Xrotation 
					JOINT lForeArm
					{
						OFFSET 10.129278 0.000000 0.000000
						CHANNELS 3 Yrotation Zrotation Xrotation 
						JOINT lHand
						{
							OFFSET 8.486692 0.000000 0.000000
							CHANNELS 3 Zrotation Yrotation Xrotation 
							End Site
							{
								OFFSET 4.106464 0.000000 0.000000
							}
						}
					}
				}
			}
			JOINT rCollar
			{
				OFFSET -3.558935 6.707223 -0.821293
				CHANNELS 3 Yrotation Zrotation Xrotation 
				JOINT rShldr
				{
					OFFSET -3.148289 0.000000 0.000000
					CHANNELS 3 Zrotation Yrotation Xrotation 
					JOINT rForeArm
					{
						OFFSET -10.266159 0.000000 0.000000
						CHANNELS 3 Yrotation Zrotation Xrotation 
						JOINT rHand
						{
							OFFSET -8.349810 0.000000 0.000000
							CHANNELS 3 Zrotation Yrotation Xrotation 
							End Site
							{
								OFFSET -4.106464 0.000000 0.000000
							}
						}
					}
				}
			}
		}
	}
	JOINT lThigh
	{
		OFFSET 5.338403 -1.642589 1.368821
		CHANNELS 3 Xrotation Zrotation Yrotation 
		JOINT lShin
		{
			OFFSET -2.053232 -20.121670 0.000000
			CHANNELS 3 Xrotation Zrotation Yrotation 
			JOINT lFoot
			{
				OFFSET 0.000000 -19.300380 -1.231939
				CHANNELS 3 Xrotation Yrotation Zrotation 
				End Site
				{
					OFFSET 0.000000 -2.463878 4.653993
				}
			}
		}
	}
	JOINT rThigh
	{
		OFFSET -5.338403 -1.642589 1.368821
		CHANNELS 3 Xrotation Zrotation Yrotation 
		JOINT rShin
		{
			OFFSET 2.053232 -20.121670 0.000000
			CHANNELS 3 Xrotation Zrotation Yrotation 
			JOINT rFoot
			{
				OFFSET 0.000000 -19.300380 -1.231939
				CHANNELS 3 Xrotation Yrotation Zrotation 
				End Site
				{
					OFFSET 0.000000 -2.463878 4.653993
				}
			}
		}
	}
}
MOTION
Frames: 6
Frame Time: 0.055442
0.000000 43.528500 0.000000 0.000000 0.000000 0.000000 0.000000 0.000000 0.000000 0.000000 0.000000 0.000000 0.000000 0.000000 0.000000 0.000000 0.000000 0.000000 0.000000 0.000000 0.000000 0.000000 0.000000 0.000000 0.000000 0.000000 0.000000 0.000000 0.000000 0.000000 0.000000 0.000000 0.000000 0.000000 0.000000 0.000000 0.000000 0.000000 0.000000 0.000000 0.000000 0.000000 0.000000 0.000000 0.000000 0.000000 0.000000 0.000000 0.000000 0.000000 0.000000 0.000000 0.000000 0.000000 0.000000 0.000000 0.000000 0.000000 0.000000 0.000000 
0.000000 43.528500 0.000000 -23.999086 -0.002245 -169.997849 10.142827 -0.161453 -0.138962 33.955162 0.517015 -0.549693 0.000000 0.000000 0.000000 0.000000 0.000000 0.000000 -22.768227 -40.884594 -59.284348 -17.003443 5.996504 1.997665 -0.187169 -0.064663 -19.991196 -18.726126 -29.417898 -11.706123 6.805186 4.749365 -49.709076 16.134178 -28.695581 -1.822458 47.965084 68.476273 -52.560032 12.866302 38.339741 6.822147 20.264679 29.159792 95.584450 68.939957 39.655746 -34.689018 36.023693 26.373161 1.735143 -135.144531 -41.888493 8.330215 117.410233 -15.824683 -0.427497 -21.813042 -2.076967 5.049894 
0.000000 43.401840 0.050897 -22.079874 -0.003528 -170.004715 10.642411 -0.161524 -0.138967 34.786362 0.517039 -0.549724 0.026181 -0.030111 -0.043860 0.089755 -0.028758 -0.001692 -22.202700 -38.724483 -58.625092 -17.513422 7.577110 2.273807 -0.351462 -2.692272 -19.900084 -18.025358 -30.065861 -10.934489 6.847603 4.139140 -50.100037 16.134180 -28.695581 -1.822459 48.833660 68.745918 -53.352089 11.659210 37.404877 5.677781 22.386448 29.380589 95.526947 68.939957 39.655746 -34.689018 35.836056 26.204845 1.453007 -134.034912 -42.835686 8.406316 117.794212 -15.844707 -0.532038 -21.865950 -1.243031 4.514556 
0.000000 43.275185 0.101794 -20.151829 -0.004585 -170.011642 11.142153 -0.161595 -0.138973 35.618263 0.517064 -0.549755 0.052387 -0.060204 -0.087736 0.179522 -0.057516 -0.003430 -21.681276 -36.546169 -58.007629 -18.019543 9.165728 2.537729 -0.513501 -5.343476 -19.815531 -17.328363 -30.723602 -10.165026 6.885841 3.528249 -50.490528 16.134180 -28.695585 -1.822459 49.723305 69.011169 -54.165272 10.487662 36.449177 4.569623 24.525129 29.604401 95.478516 68.939957 39.655746 -34.689018 35.647713 26.037313 1.170600 -132.906433 -43.786430 8.458297 118.178322 -15.864064 -0.636744 -21.911098 -0.407631 3.979455 
0.000000 43.148525 0.152691 -18.215982 -0.005410 -170.018646 11.642023 -0.161666 -0.138979 36.450775 0.517089 -0.549786 0.078616 -0.090278 -0.131628 0.269300 -0.086275 -0.005212 -21.199732 -34.351685 -57.427631 -18.522242 10.761559 2.789412 -0.673705 -8.015677 -19.737511 -16.635389 -31.390820 -9.397934 6.919905 2.916770 -50.880589 16.134180 -28.695581 -1.822458 50.634449 69.271835 -55.000008 9.350895 35.473778 3.496921 26.679474 29.830797 95.439438 68.939957 39.655746 -34.689018 35.458694 25.870588 0.887924 -131.757950 -44.740070 8.484794 118.562561 -15.882745 -0.741606 -21.948486 0.429037 3.444448 
0.000000 43.021870 0.203588 -16.273413 -0.006001 -170.025696 12.142007 -0.161737 -0.138987 37.283825 0.517114 -0.549817 0.104870 -0.120333 -0.175535 0.359090 -0.115035 -0.007040 -20.754395 -32.143089 -56.881371 -19.021969 12.363790 3.028817 -0.832502 -10.706151 -19.666037 -15.946678 -32.067192 -8.633398 6.949798 2.304778 -51.270283 16.134178 -28.695581 -1.822458 51.567467 69.527702 -55.856659 8.248090 34.479805 2.458869 28.848196 30.059320 95.410042 68.939957 39.655746 -34.689014 35.268997 25.704678 0.604990 -130.588226 -45.695892 8.484337 118.946930 -15.900749 -0.846622 -21.978081 1.266776 2.909387 
